<svg xmlns="http://www.w3.org/2000/svg" version="1.1" xmlns:xlink="http://www.w3.org/1999/xlink" xmlns:svgjs="http://svgjs.dev/svgjs" width="2000" height="1250" viewBox="0 0 2000 1250"><g transform="matrix(1,0,0,1,0,0)"><svg viewBox="0 0 512 320" data-background-color="#000000" preserveAspectRatio="xMidYMid meet" height="1250" width="2000" xmlns="http://www.w3.org/2000/svg" xmlns:xlink="http://www.w3.org/1999/xlink"><g id="tight-bounds" transform="matrix(1,0,0,1,0,0)"><svg viewBox="0 0 512 320" height="320" width="512"><rect width="512" height="320" fill="url(#a57ab3f3-6b63-4b7d-9db7-8eab85b03165)" mask="url(#e0688b81-40a8-49fa-bd5c-06614b3b8fbc)" data-fill-palette-color="tertiary"></rect><g><svg></svg></g><g><svg viewBox="0 0 512 320" height="320" width="512"><g><path d="M96 320l0-320 320 0 0 320z" fill="url(#a57ab3f3-6b63-4b7d-9db7-8eab85b03165)" fill-rule="nonzero" stroke="none" stroke-width="1" stroke-linecap="butt" stroke-linejoin="miter" stroke-miterlimit="10" stroke-dasharray="" stroke-dashoffset="0" font-family="none" font-weight="none" font-size="none" text-anchor="none" style="mix-blend-mode: normal" data-fill-palette-color="tertiary"></path></g><g transform="matrix(1,0,0,1,144.6421404682274,80)"><svg viewBox="0 0 222.71571906354515 160" height="160" width="222.71571906354515"><g><svg viewBox="0 0 222.71571906354515 160" height="160" width="222.71571906354515"><g><svg viewBox="0 0 222.71571906354515 160" height="160" width="222.71571906354515"><g id="textblocktransform"><svg viewBox="0 0 222.71571906354515 160" height="160" width="222.71571906354515" id="textblock"><g><svg viewBox="0 0 222.71571906354515 160" height="160" width="222.71571906354515"><g transform="matrix(1,0,0,1,0,0)"><svg width="222.71571906354515" viewBox="3.49 -26 50.8 36.5" height="160" data-palette-color="#000000"><path d="M3.49-4.81L19.7-4.81 19.7-10.84 8.3-10.84Q7.3-10.84 6.42-11.22 5.54-11.6 4.9-12.24 4.25-12.89 3.87-13.77 3.49-14.65 3.49-15.65L3.49-15.65 3.49-21.19Q3.49-22.19 3.87-23.07 4.25-23.95 4.9-24.6 5.54-25.24 6.42-25.62 7.3-26 8.3-26L8.3-26 23.51-26 23.51-21.19 8.3-21.19 8.3-15.65 19.7-15.65Q20.7-15.65 21.57-15.27 22.44-14.89 23.1-14.25 23.75-13.6 24.13-12.72 24.51-11.84 24.51-10.84L24.51-10.84 24.51-4.81Q24.51-3.81 24.13-2.93 23.75-2.05 23.1-1.4 22.44-0.76 21.57-0.38 20.7 0 19.7 0L19.7 0 3.49 0 3.49-4.81ZM38.55 10.5L33.76 10.5 39.21-2.34 29-26 34.06-26 41.65-8.11 49.24-26 54.29-26 38.55 10.5Z" opacity="1" transform="matrix(1,0,0,1,0,0)" fill="#000000" class="wordmark-text-0" data-fill-palette-color="quaternary" id="text-0"></path></svg></g></svg></g></svg></g></svg></g></svg></g></svg></g></svg></g><defs></defs><mask id="e0688b81-40a8-49fa-bd5c-06614b3b8fbc"><g id="SvgjsG3088"><svg viewBox="0 0 512 320" height="320" width="512"><g><svg></svg></g><g><svg viewBox="0 0 512 320" height="320" width="512"><g><path d="M96 320l0-320 320 0 0 320z" fill="white" fill-rule="nonzero" stroke="none" stroke-width="1" stroke-linecap="butt" stroke-linejoin="miter" stroke-miterlimit="10" stroke-dasharray="" stroke-dashoffset="0" font-family="none" font-weight="none" font-size="none" text-anchor="none" style="mix-blend-mode: normal"></path></g><g transform="matrix(1,0,0,1,144.6421404682274,80)"><svg viewBox="0 0 222.71571906354515 160" height="160" width="222.71571906354515"><g><svg viewBox="0 0 222.71571906354515 160" height="160" width="222.71571906354515"><g><svg viewBox="0 0 222.71571906354515 160" height="160" width="222.71571906354515"><g id="SvgjsG3087"><svg viewBox="0 0 222.71571906354515 160" height="160" width="222.71571906354515" id="SvgjsSvg3086"><g><svg viewBox="0 0 222.71571906354515 160" height="160" width="222.71571906354515"><g transform="matrix(1,0,0,1,0,0)"><svg width="222.71571906354515" viewBox="3.49 -26 50.8 36.5" height="160" data-palette-color="#000000"><path d="M3.49-4.81L19.7-4.81 19.7-10.84 8.3-10.84Q7.3-10.84 6.42-11.22 5.54-11.6 4.9-12.24 4.25-12.89 3.87-13.77 3.49-14.65 3.49-15.65L3.49-15.65 3.49-21.19Q3.49-22.19 3.87-23.07 4.25-23.95 4.9-24.6 5.54-25.24 6.42-25.62 7.3-26 8.3-26L8.3-26 23.51-26 23.51-21.19 8.3-21.19 8.3-15.65 19.7-15.65Q20.7-15.65 21.57-15.27 22.44-14.89 23.1-14.25 23.75-13.6 24.13-12.72 24.51-11.84 24.51-10.84L24.51-10.84 24.51-4.81Q24.51-3.81 24.13-2.93 23.75-2.05 23.1-1.4 22.44-0.76 21.57-0.38 20.7 0 19.7 0L19.7 0 3.49 0 3.49-4.81ZM38.55 10.5L33.76 10.5 39.21-2.34 29-26 34.06-26 41.65-8.11 49.24-26 54.29-26 38.55 10.5Z" opacity="1" transform="matrix(1,0,0,1,0,0)" fill="black" class="wordmark-text-0" id="SvgjsPath3085"></path></svg></g></svg></g></svg></g></svg></g></svg></g></svg></g></svg></g><defs><mask></mask></defs></svg><rect width="512" height="320" fill="black" stroke="none" visibility="hidden"></rect></g></mask><linearGradient x1="0" x2="1" y1="0.548" y2="0.55" id="a57ab3f3-6b63-4b7d-9db7-8eab85b03165"><stop stop-color="#ff6cab" offset="0"></stop><stop stop-color="#7366ff" offset="1"></stop></linearGradient></svg><rect width="512" height="320" fill="none" stroke="none" visibility="hidden"></rect></g></svg></g></svg>